<svg width="55" height="50" viewBox="0 0 55 50" fill="none" xmlns="http://www.w3.org/2000/svg">
<path d="M54.3612 35.7739C52.2232 35.3821 50.6112 36.7861 48.5926 34.694C48.0651 34.1477 47.3032 34.4557 47.0615 35.121C45.329 39.8961 41.725 37.5892 40.0737 34.2445C39.7537 33.5971 38.8479 33.6532 38.5148 34.2445C37.3734 37.1933 35.1756 37.5565 31.9207 35.334C31.4037 34.8565 30.5557 35.0171 30.3613 35.7687C28.9444 41.2505 23.9926 39.7445 22.467 35.24C22.3903 35.0131 22.225 34.903 22.0534 34.8833C21.7063 34.4245 20.9202 34.287 20.6493 34.9304C18.6978 39.5629 15.0757 38.8538 12.8213 34.9366C12.4143 34.2297 11.5742 34.4748 11.3074 35.1456C9.41138 39.9112 3.88687 39.8018 3.98525 34.0731C3.99605 33.4386 3.09666 33.3141 2.94457 33.9245C1.16505 41.0639 9.43707 42.3021 12.3025 37.0614C15.2623 40.6157 19.7005 41.3451 21.8172 36.5616C23.623 41.8079 29.5221 42.8397 31.7146 37.6197C34.4989 39.5841 37.1513 39.2755 39.2437 36.4846C41.7957 40.3324 46.3428 41.7499 48.3614 37.0019C50.2139 38.3257 51.4429 37.3996 54.1233 37.6265C55.1237 37.7116 55.3522 35.9558 54.3612 35.7739Z" fill="#00B2A0"/>
<path d="M51.0116 43.4666C50.1729 44.9217 49.883 46.2258 48.0866 46.937C45.8753 47.8132 43.6742 45.7226 42.5845 44.0085C42.2085 43.4169 41.2966 43.3032 40.9454 44.0085C39.4061 47.1004 35.9971 46.3454 34.5425 43.3614C34.1849 42.6274 32.9755 42.7584 32.8269 43.5982C32.0096 48.2238 28.3396 48.7134 25.8817 45.3607C26.1499 44.458 24.7505 43.8436 24.369 44.7272C22.3057 49.5066 18.2776 48.9727 15.9396 44.7074C15.5338 43.9672 14.6248 44.2268 14.3627 44.9251C12.4626 49.9885 9.50315 47.5798 7.84244 44.0945C7.51899 43.4154 6.59654 43.6506 6.40154 44.2934C5.49397 47.2869 3.99878 47.8459 1.47984 48.6203C1.00547 48.7664 1.07874 49.6358 1.6004 49.5624C4.48657 49.1561 6.06292 48.6138 7.24255 46.3439C9.66604 50.3406 13.0493 51.1569 15.3196 46.9515C18.2633 50.8431 22.992 51.2867 25.3349 46.6568C27.9373 50.3955 32.3018 50.2114 34.0495 46.1373C36.3042 48.9462 39.586 49.3408 41.8565 46.1974C45.2354 49.7853 52.1459 50.5884 52.3923 43.8624C52.423 43.0602 51.3826 42.8225 51.0116 43.4666Z" fill="#00B2A0"/>
<path d="M15.5216 7.50507C14.9558 7.67894 14.7328 8.12751 14.75 8.58039C10.7414 9.20592 8.14631 13.383 7.83659 17.5844C7.41302 23.3329 12.0364 26.7096 17.0492 26.2808C22.1746 25.8427 25.5089 21.0025 25.3583 15.8006C25.2076 10.605 20.5472 5.95774 15.5216 7.50507ZM16.3562 23.6529C12.6771 23.9716 10.2971 21.3478 10.3675 17.5844C10.4414 13.6401 13.303 11.039 16.6203 9.99916C16.6811 9.98005 16.7248 9.94737 16.7742 9.91839C20.008 10.4511 22.4537 11.7506 22.7973 15.8C23.154 20.0005 20.2337 23.3162 16.3562 23.6529Z" fill="#00B2A0"/>
<path d="M10.8559 7.3313C10.2525 6.63795 9.58398 6.02876 8.89944 5.42759C8.22074 4.83135 7.50087 3.67771 6.54397 3.77205C6.0372 3.822 5.69391 4.16143 5.65859 4.70711C5.59145 5.74266 6.55827 6.25135 7.2615 6.77946C8.06544 7.38279 8.90061 7.92261 9.64674 8.60856C10.4746 9.37005 11.6075 8.19483 10.8559 7.3313Z" fill="#00B2A0"/>
<path d="M5.30953 10.4497C5.63122 10.4907 5.3469 10.4414 5.26195 10.4133C5.13146 10.3699 5.0036 10.3178 4.87603 10.266C4.73154 10.2077 4.5885 10.1448 4.44575 10.0819C4.43612 10.0776 4.43086 10.0755 4.41656 10.0687C4.28053 9.79275 4.0467 9.57047 3.74574 9.47089C3.20832 9.29239 2.39095 8.86602 1.81004 9.05871C1.48164 9.16784 1.13747 9.45486 1.07354 9.83653C1.07354 9.83653 1.07325 9.83807 1.07325 9.83869C1.01253 10.2003 1.0388 10.6708 1.34444 10.9223C1.51462 11.0617 1.71371 11.1603 1.92126 11.2454C1.75312 11.2448 1.88886 11.2531 2.04095 11.2904C2.14866 11.3296 2.25492 11.3697 2.36585 11.4008C2.63324 11.4958 2.90035 11.5923 3.16628 11.6906C3.31896 11.7476 3.4763 11.7526 3.62839 11.7236C4.17515 11.8771 4.77386 12.051 5.30982 12.0165C6.28424 11.9536 6.24249 10.569 5.30953 10.4497Z" fill="#00B2A0"/>
<path d="M3.63996 19.2586C3.23069 19.6208 2.75312 19.9048 2.2878 20.177C2.04727 20.3179 1.79855 20.4637 1.54079 20.5664C1.38637 20.6277 1.14058 20.5762 1.48037 20.6419C1.31164 20.6095 1.15167 20.6061 0.983817 20.587C-0.4311 20.4258 -0.302365 23.124 1.25734 22.7219C1.83183 22.574 2.41888 21.995 2.90725 21.6241C3.47386 21.194 4.03959 20.7239 4.50666 20.1739C5.04057 19.5456 4.2416 18.7255 3.63996 19.2586Z" fill="#00B2A0"/>
<path d="M7.24525 24.6059C6.76593 25.3828 6.32893 26.1881 5.87296 26.9801C5.37874 27.8381 4.54153 28.4778 4.43177 29.5044C4.36171 30.1598 5.04129 30.4845 5.54309 30.3985C6.56918 30.2227 7.06981 28.8434 7.44492 27.95C7.832 27.0282 8.06992 26.0614 8.37993 25.1106C8.61813 24.3784 7.61394 24.0078 7.24525 24.6059Z" fill="#00B2A0"/>
<path d="M16.9431 27.3986C16.8421 26.8502 16.0391 26.8764 15.9214 27.3986C15.6126 28.7715 15.2509 30.1326 14.9476 31.5067C14.8743 31.8384 14.9374 32.2222 15.1864 32.4608C15.1455 32.4032 15.1502 32.4146 15.2001 32.4944C15.497 33.0068 16.1208 32.9482 16.4285 32.4944C16.1474 32.9088 16.6276 32.2937 16.6448 32.2623C16.758 32.0579 16.7677 31.8433 16.7796 31.6139C16.8048 31.1392 16.8576 30.6656 16.9005 30.1924C16.9849 29.2697 17.1124 28.3171 16.9431 27.3986Z" fill="#00B2A0"/>
<path d="M27.6073 28.2094C26.8732 27.0971 25.7072 26.3831 25.0399 25.2344C24.5831 24.4476 23.5368 25.1329 23.8898 25.9444C24.1957 26.6476 24.6631 27.2315 25.1456 27.8071C25.3759 28.0818 25.6118 28.35 25.8144 28.6484C26.0908 29.0557 26.2044 29.5132 26.7433 29.5924C27.0533 29.638 27.4071 29.5733 27.5635 29.2394C27.5781 29.2086 27.5927 29.1777 27.607 29.1466C27.7407 28.8624 27.7921 28.4896 27.6073 28.2094Z" fill="#00B2A0"/>
<path d="M31.8792 19.9102C30.6435 19.9789 29.4075 20.0449 28.1718 20.11C27.0599 20.1685 27.0599 21.8734 28.1718 21.9323C29.4078 21.9976 30.6435 22.0636 31.8792 22.1318C33.236 22.2073 33.236 19.8353 31.8792 19.9102Z" fill="#00B2A0"/>
<path d="M31.8797 7.09895C30.7587 7.07429 29.8526 8.49614 29.1809 9.32206C28.459 10.2093 27.8247 11.1709 27.0887 12.0464C26.5265 12.7154 27.3932 13.6419 28.0199 13.0299C28.762 12.3048 29.4357 11.5079 30.148 10.751C30.5503 10.3237 30.9665 9.89332 31.4231 9.53046C31.9845 9.08498 32.4255 8.94039 32.6751 8.20141C32.8605 7.65295 32.3835 7.11005 31.8797 7.09895Z" fill="#00B2A0"/>
<path d="M26.4932 1.29629C25.8297 1.74579 25.3871 2.47583 24.9311 3.14328C24.3996 3.92142 23.8943 4.70325 23.2795 5.41294C22.5833 6.21666 23.6663 7.37307 24.4139 6.61097C24.9942 6.01905 25.508 5.37379 26.0115 4.70911C26.5522 3.99571 27.2492 3.34244 27.6941 2.56431C28.1408 1.78371 27.2417 0.78946 26.4932 1.29629Z" fill="#00B2A0"/>
<path d="M18.2032 0.226596C17.8797 -0.075532 17.4565 -0.075532 17.133 0.226596C16.4981 0.819753 16.7909 1.85531 16.8437 2.64485C16.9045 3.55062 16.9695 4.45546 17.0475 5.36C17.1202 6.20349 18.216 6.20349 18.2887 5.36C18.3667 4.45515 18.4318 3.55093 18.4925 2.64485C18.5453 1.85562 18.8381 0.819445 18.2032 0.226596Z" fill="#00B2A0"/>
</svg>
